<?xml version="1.0" encoding="UTF-8" standalone="no"?>
<svg
   class="hidden sm:dark:inline-block"
   width="28.802"
   height="44.203129"
   viewBox="0 0 28.802 44.203129"
   fill="none"
   version="1.1"
   id="svg11"
   sodipodi:docname="roocket.svg"
   inkscape:version="1.4.3 (0d15f75, 2025-12-25)"
   xmlns:inkscape="http://www.inkscape.org/namespaces/inkscape"
   xmlns:sodipodi="http://sodipodi.sourceforge.net/DTD/sodipodi-0.dtd"
   xmlns="http://www.w3.org/2000/svg"
   xmlns:svg="http://www.w3.org/2000/svg">
  <defs
     id="defs11" />
  <sodipodi:namedview
     id="namedview11"
     pagecolor="#ffffff"
     bordercolor="#000000"
     borderopacity="0.25"
     inkscape:showpageshadow="2"
     inkscape:pageopacity="0.0"
     inkscape:pagecheckerboard="0"
     inkscape:deskcolor="#d1d1d1"
     inkscape:zoom="2.119277"
     inkscape:cx="48.601481"
     inkscape:cy="50.724846"
     inkscape:window-width="1710"
     inkscape:window-height="1044"
     inkscape:window-x="0"
     inkscape:window-y="40"
     inkscape:window-maximized="1"
     inkscape:current-layer="svg11" />
  <path
     d="m 14.4049,44.20313 -5.23669,-7.7331 5.23669,-5.3069 5.1993,5.3069 z"
     fill="#ff8429"
     id="path10" />
  <path
     d="m 28.802,14.70793 v 17.5131 l -7.1818,-5.5345 c 0,0 0.7855,-6.8232 0.9351,-12.0165 0.0748,-2.5777 -2.2817,-4.7384 -8.1543,-7.65723 -5.83521,2.95673 -8.19174,5.11743 -8.11693,7.69513 0.11222,5.1554 0.93513,12.0165 0.93513,12.0165 L 0,32.22103 V 14.70793 C 0,11.59953 1.30918,8.79443 3.85274,6.40629 5.64819,4.70047 8.11693,3.10838 11.8949,1.25093 L 14.4384,0 16.982,1.25093 c 3.7405,1.85745 6.2466,3.44954 8.0421,5.15536 2.5061,2.38814 3.7779,5.19324 3.7779,8.30164 z"
     fill="#e81c4d"
     id="path11" />
</svg>
