<svg width="787" height="198" viewBox="0 0 787 198" fill="none" xmlns="http://www.w3.org/2000/svg">
<path d="M44.9237 132.834C40.167 132.834 36.2472 131.773 33.1642 129.652C30.1693 127.443 27.747 123.952 25.8972 119.18C24.1355 114.319 22.594 107.514 21.2727 98.7651L20.8763 96.2464L36.5996 93.7278L38.8457 106.851C39.1981 108.884 39.6385 110.431 40.167 111.491C40.6955 112.463 41.3121 113.126 42.0168 113.48C42.8096 113.833 43.7785 114.01 44.9237 114.01H45.7164L46.7735 123.422L45.7164 132.834H44.9237ZM0 148.476L8.19196 146.222C8.80856 146.134 9.38112 146.001 9.90963 145.825C14.1377 144.587 17.3529 143.35 19.555 142.113C21.7571 140.964 23.2986 139.418 24.1795 137.473C25.0604 135.617 25.2806 133.099 24.8401 129.917L19.555 91.8719L36.0711 89.2206L39.9028 117.059L40.4313 120.638L41.3562 127.664C42.3251 134.469 41.9287 140.169 40.167 144.764C38.4053 149.448 35.4985 153.248 31.4466 156.165C27.3946 159.169 21.8893 161.688 14.9305 163.721L12.5522 164.383L4.36024 166.77L0 148.476Z" fill="#18181B"/>
<path d="M44.8875 114.01H68.1421C71.6656 114.01 74.0439 113.524 75.2771 112.552C76.5103 111.579 76.9947 110.033 76.7305 107.912L75.2771 91.6068L92.0574 90.016L93.5108 106.321C93.9512 111.447 93.1584 116.042 91.1325 120.108C89.1946 124.173 86.2437 127.31 82.2799 129.52C78.316 131.729 73.6034 132.834 68.1421 132.834H44.8875V114.01ZM101.967 132.834C94.3916 132.834 88.4459 130.713 84.1297 126.471C79.8135 122.229 77.3471 115.998 76.7305 107.779L93.5108 106.454C93.687 108.575 93.9952 110.165 94.4357 111.226C94.9642 112.286 95.757 113.038 96.814 113.48C97.9591 113.833 99.6768 114.01 101.967 114.01L103.024 123.422L101.967 132.834ZM83.3369 76.2295H66.0281V60.8523H83.3369V76.2295ZM67.6136 60.8523V76.2295H50.1727V60.8523H67.6136Z" fill="#18181B"/>
<path d="M100.629 114.01H123.884C127.407 114.01 129.786 113.524 131.019 112.552C132.252 111.579 132.736 110.033 132.472 107.912L131.019 91.6068L147.799 90.016L149.252 106.321C149.693 111.447 148.9 116.042 146.874 120.108C144.936 124.173 141.985 127.31 138.022 129.52C134.058 131.729 129.345 132.834 123.884 132.834H100.629V114.01ZM157.709 132.834C150.133 132.834 144.188 130.713 139.871 126.471C135.555 122.229 133.089 115.998 132.472 107.779L149.252 106.454C149.429 108.575 149.737 110.165 150.177 111.226C150.706 112.286 151.499 113.038 152.556 113.48C153.701 113.833 155.418 114.01 157.709 114.01L158.766 123.422L157.709 132.834ZM104.329 159.214H119.259V173H104.329V159.214ZM93.7585 143.704H112.653V160.407H93.8906L93.7585 143.704ZM110.671 143.704H129.565L129.433 160.407H110.803L110.671 143.704Z" fill="#18181B"/>
<path d="M156.371 114.01H161.26C168.483 114.01 174.869 113.833 180.418 113.48C185.968 113.038 191.253 112.11 196.274 110.696L227.324 103.272L226.795 107.647L199.709 93.8603C197.595 92.7998 195.437 92.2696 193.235 92.2696C191.033 92.2696 188.919 92.844 186.893 93.9929C184.955 95.1418 183.413 96.7325 182.268 98.7651L180.022 103.007L165.488 93.7278L167.998 89.0881C170.905 83.9623 174.517 80.0738 178.833 77.4226C183.237 74.683 187.95 73.3132 192.97 73.3132C197.991 73.2248 202.968 74.5946 207.901 77.4226L241.197 96.7767L238.951 118.517L200.502 128.857C194.424 130.536 188.17 131.641 181.74 132.171C175.397 132.613 168.571 132.834 161.26 132.834H156.371V114.01ZM192.706 159.214H207.637V173H192.706V159.214ZM182.136 143.704H201.03V160.407H182.268L182.136 143.704ZM199.048 143.704H217.943L217.811 160.407H199.18L199.048 143.704Z" fill="#18181B"/>
<path d="M311.162 114.01H343.005C346.441 114.01 348.775 113.524 350.008 112.552C351.241 111.579 351.77 110.033 351.594 107.912L350.14 91.6068L366.788 90.016L368.242 106.321C368.77 111.447 368.022 116.042 365.996 120.108C364.058 124.173 361.063 127.31 357.011 129.52C353.047 131.729 348.379 132.834 343.005 132.834H311.162V114.01ZM376.83 132.834C369.255 132.834 363.309 130.713 358.993 126.471C354.677 122.229 352.21 116.042 351.594 107.912L368.242 106.321C368.506 108.442 368.858 110.033 369.299 111.093C369.827 112.154 370.62 112.905 371.677 113.347C372.822 113.789 374.54 114.01 376.83 114.01H378.284L379.341 123.422L378.284 132.834H376.83ZM311.823 132.834C301.781 132.834 294.206 132.745 289.097 132.569C284.076 132.392 280.112 132.038 277.205 131.508C274.299 130.978 271.524 130.182 268.881 129.122L268.749 128.989C262.671 126.338 258.487 122.14 256.197 116.396C253.907 110.652 253.731 104.156 255.668 96.9093L260.689 77.5552L276.809 82.46L271.656 102.477C270.951 105.128 270.863 107.117 271.392 108.442C271.92 109.768 273.242 110.872 275.356 111.756L275.62 111.889C276.853 112.419 278.483 112.861 280.509 113.214C282.535 113.48 285.926 113.7 290.682 113.877C295.527 113.966 302.574 114.01 311.823 114.01L312.616 123.422L311.823 132.834ZM328.868 83.5205H311.559V68.1432H328.868V83.5205ZM313.144 68.1432V83.5205H295.703V68.1432H313.144Z" fill="#18181B"/>
<path d="M376.886 114.01H387.324C390.407 114.01 392.829 113.656 394.591 112.949C396.441 112.242 397.586 111.005 398.026 109.238C398.555 107.47 398.423 105.04 397.63 101.947L392.345 82.1948L408.465 77.4226L413.75 97.1744C415.6 104.156 415.644 110.342 413.882 115.733C412.12 121.124 408.905 125.322 404.237 128.327C399.568 131.331 393.93 132.834 387.324 132.834H376.886V114.01ZM385.739 49.1868H403.047V66.5525H385.739V49.1868Z" fill="#18181B"/>
<path d="M431.453 41.7633L448.233 40.968L451.669 132.569L435.02 133.364L431.453 41.7633Z" fill="#18181B"/>
<path d="M499.244 132.834C494.487 132.834 490.568 131.773 487.485 129.652C484.49 127.443 482.067 123.952 480.218 119.18C478.456 114.319 476.914 107.514 475.593 98.7651L475.197 96.2464L490.92 93.7278L493.166 106.851C493.518 108.884 493.959 110.431 494.487 111.491C495.016 112.463 495.633 113.126 496.337 113.48C497.13 113.833 498.099 114.01 499.244 114.01H500.037L501.094 123.422L500.037 132.834H499.244ZM454.32 148.476L462.512 146.222C463.129 146.134 463.702 146.001 464.23 145.825C468.458 144.587 471.673 143.35 473.875 142.113C476.078 140.964 477.619 139.418 478.5 137.473C479.381 135.617 479.601 133.099 479.161 129.917L473.875 91.8719L490.391 89.2206L494.223 117.059L494.752 120.638L495.677 127.664C496.646 134.469 496.249 140.169 494.487 144.764C492.726 149.448 489.819 153.248 485.767 156.165C481.715 159.169 476.21 161.688 469.251 163.721L466.873 164.383L458.681 166.77L454.32 148.476Z" fill="#18181B"/>
<path d="M499.208 114.01H524.444C530.346 114.01 534.442 113.833 536.732 113.48C539.023 113.126 540.476 112.463 541.093 111.491C541.797 110.431 542.018 108.619 541.753 106.056L540.036 84.3158C539.595 79.8971 538.406 76.5388 536.468 74.2411C534.53 71.9434 532.02 70.8829 528.937 71.0596C526.911 71.0596 525.193 71.634 523.784 72.7829C522.463 73.9318 521.45 75.39 520.745 77.1575C520.04 78.925 519.776 80.8692 519.952 82.9902C520.128 85.1112 520.921 86.7903 522.33 88.0276C523.828 89.2648 525.898 89.8835 528.54 89.8835C532.328 89.8835 535.719 89.7509 538.714 89.4858C541.709 89.2206 544.088 88.9113 545.849 88.5578L548.624 106.056C547.567 106.321 545.277 106.586 541.753 106.851C538.318 107.117 533.914 107.249 528.54 107.249C521.406 107.249 515.68 105.216 511.364 101.151C507.048 97.086 504.845 91.4742 504.757 84.3158C504.669 79.0133 505.462 74.1527 507.136 69.734C508.897 65.2269 511.54 61.6035 515.063 58.8639C518.587 56.1243 522.947 54.5335 528.144 54.0916C533.165 53.7381 537.701 54.7544 541.753 57.1406C545.893 59.4383 549.241 62.8408 551.795 67.3479C554.35 71.7666 555.803 76.9365 556.155 82.8577L557.873 105.923C558.313 112.198 557.609 117.28 555.759 121.168C553.909 125.057 550.43 127.973 545.321 129.917C540.3 131.862 533.253 132.834 524.18 132.834H499.208V114.01ZM520.877 24H538.186V41.3657H520.877V24Z" fill="#18181B"/>
<path d="M705.898 55.6875H668.556C644.971 55.6875 633.179 55.6875 628.151 63.6265C623.123 71.5654 627.91 82.6272 637.483 104.751L660.815 158.67C672.161 184.89 677.833 198 687.227 198C691.302 198 694.676 195.533 698.118 190.598C699.985 187.92 699.99 184.37 698.503 181.452L690.488 165.715C688.744 162.29 687.871 160.578 688.616 159.316C689.36 158.055 691.243 158.055 695.007 158.055H707.827C711.523 158.055 714.872 155.82 716.372 152.353L724.961 132.504C727.053 127.669 724.939 122.008 720.234 119.848L688.609 105.328C684.424 103.406 685.76 96.9838 690.344 96.9838H734.198C737.914 96.9838 741.295 94.7293 742.728 91.2109C748.22 77.7302 750.18 69.7495 746.302 63.6265C741.274 55.6875 729.482 55.6875 705.898 55.6875Z" fill="#F97316"/>
<path d="M688.058 49.4851C679.454 49.5238 672.251 47.5664 665.858 42.6987C660.36 38.5126 657.072 32.8052 655.253 26.0813C654.38 22.8555 653.814 19.5702 654.006 16.178C654.065 15.1453 654.385 14.5977 655.435 14.6245C662.1 14.7898 668.411 16.1988 673.884 20.4583C674.491 20.9316 674.632 20.6365 674.775 20.1662C675.041 19.2989 675.236 18.4078 675.488 17.5354C676.879 12.7392 679.567 8.74105 682.558 4.92704C683.842 3.29035 685.247 1.77544 686.708 0.312019C687.121 -0.101859 687.387 -0.106811 687.794 0.313997C692.807 5.5033 697.264 11.0738 699.227 18.3771C699.291 18.6157 699.333 18.8603 699.38 19.1028C699.721 20.8831 699.903 20.9336 701.271 19.889C704.153 17.6889 707.461 16.5067 710.887 15.669C713.574 15.0116 716.275 14.4442 719.07 14.6106C720.02 14.667 720.479 15.0363 720.484 16.0512C720.535 25.5309 717.761 33.8995 711.144 40.5057C706.719 44.9226 701.334 47.6009 695.256 48.711C692.6 49.1981 689.952 49.5813 688.058 49.4851Z" fill="#22C55E"/>
</svg>
